<?xml version="1.0" encoding="utf-8"?>
<!-- Generator: Adobe Illustrator 15.1.0, SVG Export Plug-In . SVG Version: 6.00 Build 0)  -->
<!DOCTYPE svg PUBLIC "-//W3C//DTD SVG 1.1//EN" "http://www.w3.org/Graphics/SVG/1.1/DTD/svg11.dtd">
<svg version="1.1" id="Layer_1" xmlns="http://www.w3.org/2000/svg" xmlns:xlink="http://www.w3.org/1999/xlink" x="0px" y="0px"
	 width="36px" height="55.25px" viewBox="0 0 36 55.25" enable-background="new 0 0 36 55.25" xml:space="preserve">
<g>
	<g>
		<path fill-rule="evenodd" clip-rule="evenodd" fill="#FFFFFF" d="M32.124,10.076c-2.61-5.285-9.144-8.33-15.533-7.894
			C7.423,2.81,1.269,9.988,2.332,19.497c0.835,7.467,7.614,11.706,7.894,19.607c1.273,0,2.546,0,3.819,0
			c-0.023-9.148-6.855-12.065-7.894-19.607C4.075,4.415,23.278,2.767,28.304,11.35c6.362,10.864-7.169,17.639-6.365,27.755
			c1.188,0,2.376,0,3.564,0C26.732,28.981,37.941,21.859,32.124,10.076z"/>
		<path fill-rule="evenodd" clip-rule="evenodd" d="M25.503,39.104c-1.188,0-2.376,0-3.564,0
			c-0.804-10.116,12.728-16.891,6.365-27.755C23.278,2.767,4.075,4.415,6.151,19.497c1.038,7.542,7.87,10.459,7.894,19.607
			c-1.273,0-2.546,0-3.819,0c-0.279-7.901-7.059-12.141-7.894-19.607C1.269,9.988,7.423,2.81,16.591,2.183
			c6.39-0.437,12.923,2.608,15.533,7.894C37.941,21.859,26.732,28.981,25.503,39.104z"/>
	</g>
	<g>
		<path stroke="#000000" stroke-miterlimit="10" d="M13.299,13.047v12.128h-1.615V13.047H13.299z"/>
		<path stroke="#000000" stroke-miterlimit="10" d="M22.598,13.047c1.222,0,2.149,0.315,2.778,0.943
			c0.626,0.628,0.941,1.509,0.941,2.641c0,1.131-0.315,2.016-0.941,2.649c-0.629,0.634-1.557,0.946-2.778,0.934h-3.703v4.961h-1.613
			V13.047H22.598z M22.055,18.855c0.916,0.01,1.588-0.175,2.012-0.561c0.427-0.386,0.638-0.94,0.638-1.664
			c0-0.726-0.211-1.277-0.638-1.656c-0.424-0.379-1.096-0.57-2.012-0.57h-3.16v4.451H22.055z"/>
	</g>
	<path d="M25.355,42.531c0,0.824-0.668,1.493-1.493,1.493H11.766c-0.825,0-1.493-0.669-1.493-1.493l0,0
		c0-0.824,0.668-1.493,1.493-1.493h12.097C24.688,41.038,25.355,41.707,25.355,42.531L25.355,42.531z"/>
	<path d="M24.757,47.106c0,0.759-0.614,1.375-1.374,1.375H12.245c-0.76,0-1.374-0.616-1.374-1.375l0,0
		c0-0.759,0.614-1.375,1.374-1.375h11.138C24.143,45.731,24.757,46.348,24.757,47.106L24.757,47.106z"/>
	<path d="M22.448,50.053h-9.421c0,0,0.927,3.056,2.801,3.056h3.564h-3.311h3.564C21.521,53.108,22.447,50.053,22.448,50.053h-9.422"
		/>
</g>
</svg>
